<svg id="圖層_1" data-name="圖層 1" xmlns="http://www.w3.org/2000/svg" viewBox="0 0 512 512"><defs><style>.cls-1{fill:#f9f9f9;}.cls-2{font-size:79.11px;fill:#e52525;stroke:#fff;stroke-miterlimit:10;stroke-width:6px;font-family:AdobeMingStd-Light-B5pc-H, Adobe Ming Std;}</style></defs><rect width="512" height="512"/><path class="cls-1" d="M152.48,77.77v58.61a78.73,78.73,0,0,0-15.24-1.48c-32.59,0-56.58,23.85-56.58,62.57,0,30.82,33,38.77,53.58,51.49,8.44,5.26,15.86,11.56,22.61,17.58l.1.09.1.09c11.89,10.42,16.1,15.79,16.1,20.53v1.82a23,23,0,0,0-5.44,15v43.53c0,12,8.77,21.76,19.59,21.76H344c10.82,0,19.59-9.74,19.59-21.76V304.11a23,23,0,0,0-5.44-15v-1.82c0-19.52,27.2-45.66,27.2-86.51V186.25c0-42.53-26.29-67.19-62-68a63.13,63.13,0,0,0-42.71-10.87,63.55,63.55,0,0,0-15-5.39V77.77c0-30.9-25.57-56.58-56.59-56.58C178.39,21.19,152.48,47.1,152.48,77.77Zm80.52,0v61.91c10-8.73,29.13-9.8,41.52,3.37,13.36-7.64,31-1.15,36.47,8.79,26.61-4.44,41.71,6.85,41.71,34.41v14.49c0,30.93-24.43,52.51-27,81.61H205.5c-2-17.17-14.43-29.22-26.93-40.18-8.6-7.67-17.2-14.77-27.11-20.95-15.91-9.84-38.16-17.77-38.16-23.75,0-15.9,6-29.92,23.94-29.92,23.94,0,36.1,17.95,47.88,17.95V77.77c0-12.53,11.22-23.94,23.94-23.94A24.36,24.36,0,0,1,233,77.77Zm87.05,231.78a16.33,16.33,0,1,1-16.32,16.33A16.33,16.33,0,0,1,320.05,309.55Z" transform="translate(0 0)"/><text class="cls-2" transform="translate(132.75 457.66)">CLICK</text></svg>